<svg xmlns="http://www.w3.org/2000/svg" viewBox="0 0 64 64" width="64" height="64"><defs><linearGradient id="tile" x1="0" y1="0" x2="0" y2="1"><stop offset="0" stop-color="#5e1a1a"/><stop offset="1" stop-color="#1f0707"/></linearGradient><radialGradient id="halo" cx=".5" cy=".5" r=".5"><stop offset="0" stop-color="#f07a6a" stop-opacity=".42"/><stop offset="1" stop-color="#f07a6a" stop-opacity="0"/></radialGradient><linearGradient id="cursed-b" x1="0" y1="0" x2="1" y2="0"><stop offset="0" stop-color="#efd6ff"/><stop offset=".5" stop-color="#9b5cc8"/><stop offset=".5" stop-color="#47206c"/><stop offset="1" stop-color="#9b5cc8"/></linearGradient><linearGradient id="onyx-v" x1="0" y1="0" x2="0" y2="1"><stop offset="0" stop-color="#8d93a8"/><stop offset=".55" stop-color="#3a3f52"/><stop offset="1" stop-color="#101320"/></linearGradient><linearGradient id="gripblue-h" x1="0" y1="0" x2="1" y2="0"><stop offset="0" stop-color="#7f8fbf"/><stop offset=".55" stop-color="#3b4677"/><stop offset="1" stop-color="#1a2045"/></linearGradient><linearGradient id="darkwood-h" x1="0" y1="0" x2="1" y2="0"><stop offset="0" stop-color="#b98b62"/><stop offset=".55" stop-color="#6e4a2c"/><stop offset="1" stop-color="#38220f"/></linearGradient><linearGradient id="cursed-h" x1="0" y1="0" x2="1" y2="0"><stop offset="0" stop-color="#efd6ff"/><stop offset=".55" stop-color="#9b5cc8"/><stop offset="1" stop-color="#47206c"/></linearGradient><radialGradient id="amethyst-o" cx=".35" cy=".3" r=".8"><stop offset="0" stop-color="#efd6ff"/><stop offset=".45" stop-color="#a24fe0"/><stop offset="1" stop-color="#4a1677"/></radialGradient></defs><rect x="1" y="1" width="62" height="62" rx="9" fill="url(#tile)" stroke="#0a0d19" stroke-width="2"/><circle cx="32" cy="32" r="27" fill="url(#halo)"/><path d="M4 12a8 8 0 0 1 8-8h40a8 8 0 0 1 8 8v8C44 15 20 15 4 22Z" fill="#fff" opacity=".07"/><g transform="translate(-3 -3) translate(32 32) scale(0.88) translate(-32 -32) translate(32 32) scale(0.92) translate(-32 -32) rotate(45 32 32)"><g fill="#0a0d19" stroke="#0a0d19" stroke-width="3.6" stroke-linejoin="round"><path d="M26 7Q31 0 38 2V42H26Z"/><path d="M20.2 41.5h23.6a2.7 2.7 0 0 1 2.7 2.7v0.1a2.7 2.7 0 0 1 -2.7 2.7h-23.6a2.7 2.7 0 0 1 -2.7 -2.7v-0.1a2.7 2.7 0 0 1 2.7 -2.7Z"/><path d="M30.9 47h2.2a1.6 1.6 0 0 1 1.6 1.6v9.3a1.6 1.6 0 0 1 -1.6 1.6h-2.2a1.6 1.6 0 0 1 -1.6 -1.6v-9.3a1.6 1.6 0 0 1 1.6 -1.6Z"/><path d="M29.6 59h4.8a1.6 1.6 0 0 1 1.6 1.6v1.3a1.6 1.6 0 0 1 -1.6 1.6h-4.8a1.6 1.6 0 0 1 -1.6 -1.6v-1.3a1.6 1.6 0 0 1 1.6 -1.6Z"/></g><path d="M26 7Q31 0 38 2V42H26Z" fill="url(#cursed-b)" stroke="#0a0d19" stroke-width="0.9" stroke-linejoin="round"/><path d="M32 6V39" fill="none" stroke="rgba(0,0,0,.25)" stroke-width="1.4" stroke-linecap="round" stroke-linejoin="round"/><path d="M20.2 41.5h23.6a2.7 2.7 0 0 1 2.7 2.7v0.1a2.7 2.7 0 0 1 -2.7 2.7h-23.6a2.7 2.7 0 0 1 -2.7 -2.7v-0.1a2.7 2.7 0 0 1 2.7 -2.7Z" fill="url(#onyx-v)" stroke="#0a0d19" stroke-width="0.9" stroke-linejoin="round"/><path d="M30.9 47h2.2a1.6 1.6 0 0 1 1.6 1.6v9.3a1.6 1.6 0 0 1 -1.6 1.6h-2.2a1.6 1.6 0 0 1 -1.6 -1.6v-9.3a1.6 1.6 0 0 1 1.6 -1.6Z" fill="url(#gripblue-h)" stroke="#0a0d19" stroke-width="0.9" stroke-linejoin="round"/><path d="M29.6 50.5H34.4M29.6 53.5H34.4M29.6 56.5H34.4" fill="none" stroke="rgba(0,0,0,.35)" stroke-width="0.8" stroke-linecap="round" stroke-linejoin="round"/><path d="M29.6 59h4.8a1.6 1.6 0 0 1 1.6 1.6v1.3a1.6 1.6 0 0 1 -1.6 1.6h-4.8a1.6 1.6 0 0 1 -1.6 -1.6v-1.3a1.6 1.6 0 0 1 1.6 -1.6Z" fill="url(#onyx-v)" stroke="#0a0d19" stroke-width="0.9" stroke-linejoin="round"/></g><g transform="translate(-3 -3) translate(32 32) scale(0.88) translate(-32 -32) translate(64 0) scale(-1 1) translate(32 32) scale(0.92) translate(-32 -32) translate(0 4) rotate(45 32 32) translate(32 32) scale(0.95) translate(-32 -32)"><g fill="#0a0d19" stroke="#0a0d19" stroke-width="3.6" stroke-linejoin="round"><path d="M31.6 7h0.8a1.6 1.6 0 0 1 1.6 1.6v51.8a1.6 1.6 0 0 1 -1.6 1.6h-0.8a1.6 1.6 0 0 1 -1.6 -1.6v-51.8a1.6 1.6 0 0 1 1.6 -1.6Z"/><path d="M30.8 44h2.4a1.4 1.4 0 0 1 1.4 1.4v8.2a1.4 1.4 0 0 1 -1.4 1.4h-2.4a1.4 1.4 0 0 1 -1.4 -1.4v-8.2a1.4 1.4 0 0 1 1.4 -1.4Z"/><path d="M30.6 10L23.6 9C20.4 7 18 5.8 15.6 4.8C10.6 11 10.6 22.6 15.6 29C18 27.6 20.4 26.4 23.6 24.6L30.6 23.6Z"/><path d="M33.4 10L40.4 9C43.6 7 46 5.8 48.4 4.8C53.4 11 53.4 22.6 48.4 29C46 27.6 43.6 26.4 40.4 24.6L33.4 23.6Z"/><path d="M30.4 7.4L32 1L33.6 7.4Z"/><path d="M29.4 16.8a2.6 2.6 0 1 0 5.2 0a2.6 2.6 0 1 0 -5.2 0Z"/><path d="M30.7 58.6h2.6a1.4 1.4 0 0 1 1.4 1.4v1.8a1.4 1.4 0 0 1 -1.4 1.4h-2.6a1.4 1.4 0 0 1 -1.4 -1.4v-1.8a1.4 1.4 0 0 1 1.4 -1.4Z"/></g><path d="M31.6 7h0.8a1.6 1.6 0 0 1 1.6 1.6v51.8a1.6 1.6 0 0 1 -1.6 1.6h-0.8a1.6 1.6 0 0 1 -1.6 -1.6v-51.8a1.6 1.6 0 0 1 1.6 -1.6Z" fill="url(#darkwood-h)" stroke="#0a0d19" stroke-width="0.9" stroke-linejoin="round"/><path d="M30.8 44h2.4a1.4 1.4 0 0 1 1.4 1.4v8.2a1.4 1.4 0 0 1 -1.4 1.4h-2.4a1.4 1.4 0 0 1 -1.4 -1.4v-8.2a1.4 1.4 0 0 1 1.4 -1.4Z" fill="url(#gripblue-h)" stroke="#0a0d19" stroke-width="0.9" stroke-linejoin="round"/><path d="M30.6 10L23.6 9C20.4 7 18 5.8 15.6 4.8C10.6 11 10.6 22.6 15.6 29C18 27.6 20.4 26.4 23.6 24.6L30.6 23.6Z" fill="url(#cursed-h)" stroke="#0a0d19" stroke-width="0.9" stroke-linejoin="round"/><path d="M33.4 10L40.4 9C43.6 7 46 5.8 48.4 4.8C53.4 11 53.4 22.6 48.4 29C46 27.6 43.6 26.4 40.4 24.6L33.4 23.6Z" fill="url(#cursed-h)" stroke="#0a0d19" stroke-width="0.9" stroke-linejoin="round"/><path d="M16.4 7.4C13.4 12.4 13.4 21.4 16.4 26.4M47.6 7.4C50.6 12.4 50.6 21.4 47.6 26.4" fill="none" stroke="rgba(255,255,255,.55)" stroke-width="1" stroke-linecap="round" stroke-linejoin="round"/><path d="M30.4 7.4L32 1L33.6 7.4Z" fill="url(#cursed-h)" stroke="#0a0d19" stroke-width="0.9" stroke-linejoin="round"/><path d="M29.4 16.8a2.6 2.6 0 1 0 5.2 0a2.6 2.6 0 1 0 -5.2 0Z" fill="url(#amethyst-o)" stroke="#0a0d19" stroke-width="0.9" stroke-linejoin="round"/><path d="M30.7 58.6h2.6a1.4 1.4 0 0 1 1.4 1.4v1.8a1.4 1.4 0 0 1 -1.4 1.4h-2.6a1.4 1.4 0 0 1 -1.4 -1.4v-1.8a1.4 1.4 0 0 1 1.4 -1.4Z" fill="url(#onyx-v)" stroke="#0a0d19" stroke-width="0.9" stroke-linejoin="round"/></g><g fill="#0a0d19" stroke="#0a0d19" stroke-width="2.4" stroke-linejoin="round"><path d="M39 50a11 11 0 1 0 22 0a11 11 0 1 0 -22 0Z"/></g><path d="M39 50a11 11 0 1 0 22 0a11 11 0 1 0 -22 0Z" fill="#121a33" stroke="#0a0d19" stroke-width="0.9" stroke-linejoin="round"/><path d="M40.3 50a9.7 9.7 0 1 0 19.4 0a9.7 9.7 0 1 0 -19.4 0Z" fill="none" stroke="#f07a6a" stroke-width="1.3" stroke-linecap="round" stroke-linejoin="round"/><g transform="translate(43.125 43.125) scale(0.21484375)" fill="#fff"><path d="M32 4 L56 12 L56 30 C56 44 46 54 32 60 C18 54 8 44 8 30 L8 12 Z"/><path d="M32 10 L50 16 L50 30 C50 40 42 48 32 53 Z" fill="#000" fill-opacity="0.3"/></g><rect x="3.2" y="3.2" width="57.6" height="57.6" rx="7" fill="none" stroke="#f07a6a" stroke-width="1.6" opacity=".95"/></svg>