<svg xmlns="http://www.w3.org/2000/svg" viewBox="0 0 64 64" width="64" height="64"><defs><linearGradient id="tile" x1="0" y1="0" x2="0" y2="1"><stop offset="0" stop-color="#2f5a32"/><stop offset="1" stop-color="#0f2312"/></linearGradient><radialGradient id="halo" cx=".5" cy=".5" r=".5"><stop offset="0" stop-color="#d39b55" stop-opacity=".42"/><stop offset="1" stop-color="#d39b55" stop-opacity="0"/></radialGradient><linearGradient id="iron-b" x1="0" y1="0" x2="1" y2="0"><stop offset="0" stop-color="#eef1f5"/><stop offset=".5" stop-color="#aab2bc"/><stop offset=".5" stop-color="#626b77"/><stop offset="1" stop-color="#aab2bc"/></linearGradient><linearGradient id="steel-v" x1="0" y1="0" x2="0" y2="1"><stop offset="0" stop-color="#cddaea"/><stop offset=".55" stop-color="#7d91a8"/><stop offset="1" stop-color="#3d4d63"/></linearGradient><linearGradient id="grip-h" x1="0" y1="0" x2="1" y2="0"><stop offset="0" stop-color="#9e7550"/><stop offset=".55" stop-color="#5e3c22"/><stop offset="1" stop-color="#2f1d0f"/></linearGradient><radialGradient id="steel-o" cx=".35" cy=".3" r=".8"><stop offset="0" stop-color="#cddaea"/><stop offset=".45" stop-color="#7d91a8"/><stop offset="1" stop-color="#3d4d63"/></radialGradient></defs><rect x="1" y="1" width="62" height="62" rx="9" fill="url(#tile)" stroke="#0a0d19" stroke-width="2"/><circle cx="32" cy="32" r="27" fill="url(#halo)"/><path d="M4 12a8 8 0 0 1 8-8h40a8 8 0 0 1 8 8v8C44 15 20 15 4 22Z" fill="#fff" opacity=".07"/><g transform="rotate(45 32 32)"><g fill="#0a0d19" stroke="#0a0d19" stroke-width="3.6" stroke-linejoin="round"><path d="M32 2L36.5 9.5V43H27.5V9.5Z"/><path d="M22 42.5h20a2.5 2.5 0 0 1 2.5 2.5v0a2.5 2.5 0 0 1 -2.5 2.5h-20a2.5 2.5 0 0 1 -2.5 -2.5v0a2.5 2.5 0 0 1 2.5 -2.5Z"/><path d="M31 47.5h2a1.5 1.5 0 0 1 1.5 1.5v7.5a1.5 1.5 0 0 1 -1.5 1.5h-2a1.5 1.5 0 0 1 -1.5 -1.5v-7.5a1.5 1.5 0 0 1 1.5 -1.5Z"/><path d="M28.6 60.5a3.4 3.4 0 1 0 6.8 0a3.4 3.4 0 1 0 -6.8 0Z"/></g><path d="M32 2L36.5 9.5V43H27.5V9.5Z" fill="url(#iron-b)" stroke="#0a0d19" stroke-width="0.9" stroke-linejoin="round"/><path d="M32 9V40" fill="none" stroke="rgba(0,0,0,.28)" stroke-width="1.1" stroke-linecap="round" stroke-linejoin="round"/><path d="M22 42.5h20a2.5 2.5 0 0 1 2.5 2.5v0a2.5 2.5 0 0 1 -2.5 2.5h-20a2.5 2.5 0 0 1 -2.5 -2.5v0a2.5 2.5 0 0 1 2.5 -2.5Z" fill="url(#steel-v)" stroke="#0a0d19" stroke-width="0.9" stroke-linejoin="round"/><path d="M31 47.5h2a1.5 1.5 0 0 1 1.5 1.5v7.5a1.5 1.5 0 0 1 -1.5 1.5h-2a1.5 1.5 0 0 1 -1.5 -1.5v-7.5a1.5 1.5 0 0 1 1.5 -1.5Z" fill="url(#grip-h)" stroke="#0a0d19" stroke-width="0.9" stroke-linejoin="round"/><path d="M29.8 51.5H34.2M29.8 54.5H34.2" fill="none" stroke="rgba(0,0,0,.35)" stroke-width="0.8" stroke-linecap="round" stroke-linejoin="round"/><path d="M28.6 60.5a3.4 3.4 0 1 0 6.8 0a3.4 3.4 0 1 0 -6.8 0Z" fill="url(#steel-o)" stroke="#0a0d19" stroke-width="0.9" stroke-linejoin="round"/></g><rect x="3.2" y="3.2" width="57.6" height="57.6" rx="7" fill="none" stroke="#d39b55" stroke-width="1.6" opacity=".95"/></svg>