<svg xmlns="http://www.w3.org/2000/svg" viewBox="0 0 64 64" width="64" height="64"><defs><linearGradient id="tile" x1="0" y1="0" x2="0" y2="1"><stop offset="0" stop-color="#3d4a63"/><stop offset="1" stop-color="#161c2a"/></linearGradient><radialGradient id="halo" cx=".5" cy=".5" r=".5"><stop offset="0" stop-color="#7cc46c" stop-opacity=".42"/><stop offset="1" stop-color="#7cc46c" stop-opacity="0"/></radialGradient><linearGradient id="darkwood-h" x1="0" y1="0" x2="1" y2="0"><stop offset="0" stop-color="#b98b62"/><stop offset=".55" stop-color="#6e4a2c"/><stop offset="1" stop-color="#38220f"/></linearGradient><linearGradient id="sky-d" x1="0" y1="0" x2="1" y2="1"><stop offset="0" stop-color="#eaf8ff"/><stop offset=".55" stop-color="#8fcfff"/><stop offset="1" stop-color="#3a86d6"/></linearGradient><linearGradient id="gold-d" x1="0" y1="0" x2="1" y2="1"><stop offset="0" stop-color="#fff8d2"/><stop offset=".55" stop-color="#f2c94e"/><stop offset="1" stop-color="#a26c14"/></linearGradient><radialGradient id="gold-o" cx=".35" cy=".3" r=".8"><stop offset="0" stop-color="#fff8d2"/><stop offset=".45" stop-color="#f2c94e"/><stop offset="1" stop-color="#a26c14"/></radialGradient><linearGradient id="white-v" x1="0" y1="0" x2="0" y2="1"><stop offset="0" stop-color="#ffffff"/><stop offset=".55" stop-color="#f3f5fa"/><stop offset="1" stop-color="#c3cad8"/></linearGradient></defs><rect x="1" y="1" width="62" height="62" rx="9" fill="url(#tile)" stroke="#0a0d19" stroke-width="2"/><circle cx="32" cy="32" r="27" fill="url(#halo)"/><path d="M4 12a8 8 0 0 1 8-8h40a8 8 0 0 1 8 8v8C44 15 20 15 4 22Z" fill="#fff" opacity=".07"/><g transform="translate(-2 -2) translate(32 32) scale(0.92) translate(-32 -32)"><g fill="#0a0d19" stroke="#0a0d19" stroke-width="3.6" stroke-linejoin="round"><path d="M13.6 6h1.2a1.6 1.6 0 0 1 1.6 1.6v50.8a1.6 1.6 0 0 1 -1.6 1.6h-1.2a1.6 1.6 0 0 1 -1.6 -1.6v-50.8a1.6 1.6 0 0 1 1.6 -1.6Z"/><path d="M16 10H54L48 21L54 32V36H16Z"/><path d="M10.8 5.6a3.4 3.4 0 1 0 6.8 0a3.4 3.4 0 1 0 -6.8 0Z"/></g><path d="M13.6 6h1.2a1.6 1.6 0 0 1 1.6 1.6v50.8a1.6 1.6 0 0 1 -1.6 1.6h-1.2a1.6 1.6 0 0 1 -1.6 -1.6v-50.8a1.6 1.6 0 0 1 1.6 -1.6Z" fill="url(#darkwood-h)" stroke="#0a0d19" stroke-width="0.9" stroke-linejoin="round"/><path d="M16 10H54L48 21L54 32V36H16Z" fill="url(#sky-d)" stroke="#0a0d19" stroke-width="0.9" stroke-linejoin="round"/><path d="M16 10H54L48 21L54 32V36H16Z" fill="none" stroke="rgba(255,255,255,.25)" stroke-width="0.8" stroke-linecap="round" stroke-linejoin="round"/><path d="M16.4 13.6H50" fill="none" stroke="url(#gold-d)" stroke-width="1.6" stroke-linecap="round" stroke-linejoin="round"/><path d="M10.8 5.6a3.4 3.4 0 1 0 6.8 0a3.4 3.4 0 1 0 -6.8 0Z" fill="url(#gold-o)" stroke="#0a0d19" stroke-width="0.9" stroke-linejoin="round"/></g><g transform="translate(-2 -2) translate(32 32) scale(0.92) translate(-32 -32)"><g fill="#0a0d19" stroke="#0a0d19" stroke-width="3.6" stroke-linejoin="round"><path d="M24.62 19.72a7.38 2.79 0 1 0 14.76 0a7.38 2.79 0 1 0 -14.76 0ZM26.75 19.72a5.25 1.48 0 1 0 10.5 0a5.25 1.48 0 1 0 -10.5 0Z" fill-rule="evenodd"/><path d="M32 20.54L33.51 24.77L37.74 26.28L33.51 27.79L32 32.02L30.49 27.79L26.26 26.28L30.49 24.77Z"/></g><path d="M24.62 19.72a7.38 2.79 0 1 0 14.76 0a7.38 2.79 0 1 0 -14.76 0ZM26.75 19.72a5.25 1.48 0 1 0 10.5 0a5.25 1.48 0 1 0 -10.5 0Z" fill="url(#white-v)" fill-rule="evenodd" stroke="#0a0d19" stroke-width="0.9" stroke-linejoin="round"/><path d="M32 20.54L33.51 24.77L37.74 26.28L33.51 27.79L32 32.02L30.49 27.79L26.26 26.28L30.49 24.77Z" fill="#ffffff" stroke="#0a0d19" stroke-width="0.9" stroke-linejoin="round"/></g><g fill="#0a0d19" stroke="#0a0d19" stroke-width="2.4" stroke-linejoin="round"><path d="M39 50a11 11 0 1 0 22 0a11 11 0 1 0 -22 0Z"/></g><path d="M39 50a11 11 0 1 0 22 0a11 11 0 1 0 -22 0Z" fill="#121a33" stroke="#0a0d19" stroke-width="0.9" stroke-linejoin="round"/><path d="M40.3 50a9.7 9.7 0 1 0 19.4 0a9.7 9.7 0 1 0 -19.4 0Z" fill="none" stroke="#7cc46c" stroke-width="1.3" stroke-linecap="round" stroke-linejoin="round"/><g transform="translate(43.125 43.125) scale(0.21484375)" fill="#fff"><path d="M4 18 C20 16 36 18 50 30 C56 36 60 44 60 52 C52 44 44 42 36 42 C40 46 42 50 42 54 C34 48 26 46 18 46 C22 42 24 38 26 36 C18 36 10 32 6 26 C14 28 22 28 28 28 C20 24 12 22 4 18 Z"/></g><rect x="3.2" y="3.2" width="57.6" height="57.6" rx="7" fill="none" stroke="#7cc46c" stroke-width="1.6" opacity=".95"/></svg>