<svg xmlns="http://www.w3.org/2000/svg" viewBox="0 0 64 64" width="64" height="64"><defs><linearGradient id="tile" x1="0" y1="0" x2="0" y2="1"><stop offset="0" stop-color="#3d4a63"/><stop offset="1" stop-color="#161c2a"/></linearGradient><radialGradient id="halo" cx=".5" cy=".5" r=".5"><stop offset="0" stop-color="#f0605a" stop-opacity=".42"/><stop offset="1" stop-color="#f0605a" stop-opacity="0"/></radialGradient><linearGradient id="darkwood-h" x1="0" y1="0" x2="1" y2="0"><stop offset="0" stop-color="#b98b62"/><stop offset=".55" stop-color="#6e4a2c"/><stop offset="1" stop-color="#38220f"/></linearGradient><linearGradient id="white-d" x1="0" y1="0" x2="1" y2="1"><stop offset="0" stop-color="#ffffff"/><stop offset=".55" stop-color="#f3f5fa"/><stop offset="1" stop-color="#c3cad8"/></linearGradient><linearGradient id="gold-d" x1="0" y1="0" x2="1" y2="1"><stop offset="0" stop-color="#fff8d2"/><stop offset=".55" stop-color="#f2c94e"/><stop offset="1" stop-color="#a26c14"/></linearGradient><radialGradient id="gold-o" cx=".35" cy=".3" r=".8"><stop offset="0" stop-color="#fff8d2"/><stop offset=".45" stop-color="#f2c94e"/><stop offset="1" stop-color="#a26c14"/></radialGradient><linearGradient id="topaz-d" x1="0" y1="0" x2="1" y2="1"><stop offset="0" stop-color="#fff7c8"/><stop offset=".55" stop-color="#f4c21e"/><stop offset="1" stop-color="#9a6a06"/></linearGradient></defs><rect x="1" y="1" width="62" height="62" rx="9" fill="url(#tile)" stroke="#0a0d19" stroke-width="2"/><circle cx="32" cy="32" r="27" fill="url(#halo)"/><path d="M4 12a8 8 0 0 1 8-8h40a8 8 0 0 1 8 8v8C44 15 20 15 4 22Z" fill="#fff" opacity=".07"/><g transform="translate(-2 -2) translate(32 32) scale(0.92) translate(-32 -32)"><g fill="#0a0d19" stroke="#0a0d19" stroke-width="3.6" stroke-linejoin="round"><path d="M13.6 6h1.2a1.6 1.6 0 0 1 1.6 1.6v50.8a1.6 1.6 0 0 1 -1.6 1.6h-1.2a1.6 1.6 0 0 1 -1.6 -1.6v-50.8a1.6 1.6 0 0 1 1.6 -1.6Z"/><path d="M16 10H54L48 21L54 32V36H16Z"/><path d="M10.8 5.6a3.4 3.4 0 1 0 6.8 0a3.4 3.4 0 1 0 -6.8 0Z"/></g><path d="M13.6 6h1.2a1.6 1.6 0 0 1 1.6 1.6v50.8a1.6 1.6 0 0 1 -1.6 1.6h-1.2a1.6 1.6 0 0 1 -1.6 -1.6v-50.8a1.6 1.6 0 0 1 1.6 -1.6Z" fill="url(#darkwood-h)" stroke="#0a0d19" stroke-width="0.9" stroke-linejoin="round"/><path d="M16 10H54L48 21L54 32V36H16Z" fill="url(#white-d)" stroke="#0a0d19" stroke-width="0.9" stroke-linejoin="round"/><path d="M16 10H54L48 21L54 32V36H16Z" fill="none" stroke="rgba(255,255,255,.25)" stroke-width="0.8" stroke-linecap="round" stroke-linejoin="round"/><path d="M16.4 13.6H50" fill="none" stroke="url(#gold-d)" stroke-width="1.6" stroke-linecap="round" stroke-linejoin="round"/><path d="M10.8 5.6a3.4 3.4 0 1 0 6.8 0a3.4 3.4 0 1 0 -6.8 0Z" fill="url(#gold-o)" stroke="#0a0d19" stroke-width="0.9" stroke-linejoin="round"/></g><g transform="translate(-2 -2) translate(32 32) scale(0.92) translate(-32 -32)"><g fill="#0a0d19" stroke="#0a0d19" stroke-width="3.6" stroke-linejoin="round"><path d="M32 13.98L34.01 18.15L38.38 16.62L36.85 20.99L41.02 23L36.85 25.01L38.38 29.38L34.01 27.85L32 32.02L29.99 27.85L25.62 29.38L27.15 25.01L22.98 23L27.15 20.99L25.62 16.62L29.99 18.15Z"/><path d="M27.9 23a4.1 4.1 0 1 0 8.2 0a4.1 4.1 0 1 0 -8.2 0Z"/></g><path d="M32 13.98L34.01 18.15L38.38 16.62L36.85 20.99L41.02 23L36.85 25.01L38.38 29.38L34.01 27.85L32 32.02L29.99 27.85L25.62 29.38L27.15 25.01L22.98 23L27.15 20.99L25.62 16.62L29.99 18.15Z" fill="url(#topaz-d)" stroke="#0a0d19" stroke-width="0.9" stroke-linejoin="round"/><path d="M27.9 23a4.1 4.1 0 1 0 8.2 0a4.1 4.1 0 1 0 -8.2 0Z" fill="#fffbe6" stroke="#0a0d19" stroke-width="0.9" stroke-linejoin="round"/></g><g fill="#0a0d19" stroke="#0a0d19" stroke-width="2.4" stroke-linejoin="round"><path d="M39 50a11 11 0 1 0 22 0a11 11 0 1 0 -22 0Z"/></g><path d="M39 50a11 11 0 1 0 22 0a11 11 0 1 0 -22 0Z" fill="#121a33" stroke="#0a0d19" stroke-width="0.9" stroke-linejoin="round"/><path d="M40.3 50a9.7 9.7 0 1 0 19.4 0a9.7 9.7 0 1 0 -19.4 0Z" fill="none" stroke="#f0605a" stroke-width="1.3" stroke-linecap="round" stroke-linejoin="round"/><g transform="translate(43.125 43.125) scale(0.21484375)" fill="#fff"><path d="M44 6 L48 14 C56 18 60 24 58 30 C57 33 53 34 50 32 L44 28 C42 34 40 40 42 50 L46 58 L18 58 C14 48 16 34 22 26 C26 20 32 16 38 14 Z"/><circle cx="48" cy="20" r="2.5" fill="#000" fill-opacity="0.5"/><path d="M38 14 C32 18 26 26 24 36 C28 28 32 22 40 18 Z" fill="#000" fill-opacity="0.35"/></g><rect x="3.2" y="3.2" width="57.6" height="57.6" rx="7" fill="none" stroke="#f0605a" stroke-width="1.6" opacity=".95"/></svg>