<svg xmlns="http://www.w3.org/2000/svg" viewBox="0 0 64 64" width="64" height="64"><defs><linearGradient id="tile" x1="0" y1="0" x2="0" y2="1"><stop offset="0" stop-color="#1f6066"/><stop offset="1" stop-color="#0b2326"/></linearGradient><radialGradient id="halo" cx=".5" cy=".5" r=".5"><stop offset="0" stop-color="#7cc46c" stop-opacity=".42"/><stop offset="1" stop-color="#7cc46c" stop-opacity="0"/></radialGradient><linearGradient id="steel-v" x1="0" y1="0" x2="0" y2="1"><stop offset="0" stop-color="#cddaea"/><stop offset=".55" stop-color="#7d91a8"/><stop offset="1" stop-color="#3d4d63"/></linearGradient><linearGradient id="darkwood-d" x1="0" y1="0" x2="1" y2="1"><stop offset="0" stop-color="#b98b62"/><stop offset=".55" stop-color="#6e4a2c"/><stop offset="1" stop-color="#38220f"/></linearGradient><linearGradient id="iron-v" x1="0" y1="0" x2="0" y2="1"><stop offset="0" stop-color="#eef1f5"/><stop offset=".55" stop-color="#aab2bc"/><stop offset="1" stop-color="#626b77"/></linearGradient><linearGradient id="iron-d" x1="0" y1="0" x2="1" y2="1"><stop offset="0" stop-color="#eef1f5"/><stop offset=".55" stop-color="#aab2bc"/><stop offset="1" stop-color="#626b77"/></linearGradient></defs><rect x="1" y="1" width="62" height="62" rx="9" fill="url(#tile)" stroke="#0a0d19" stroke-width="2"/><circle cx="32" cy="32" r="27" fill="url(#halo)"/><path d="M4 12a8 8 0 0 1 8-8h40a8 8 0 0 1 8 8v8C44 15 20 15 4 22Z" fill="#fff" opacity=".07"/><g transform="translate(1 4) rotate(-14 32 32)"><g fill="#0a0d19" stroke="#0a0d19" stroke-width="3.6" stroke-linejoin="round"><path d="M22 18.6H54.4A2.4 2.4 0 0 1 56.8 21V25A2.4 2.4 0 0 1 54.4 27.4H22Z"/><path d="M14.4 17H30.4V30.6H26L19.6 48.6Q17 53.8 11.4 51.4Q7.6 49.6 8.8 44.6L14.4 28Z"/><path d="M18 15h8.8a1.6 1.6 0 0 1 1.6 1.6v2.8a1.6 1.6 0 0 1 -1.6 1.6h-8.8a1.6 1.6 0 0 1 -1.6 -1.6v-2.8a1.6 1.6 0 0 1 1.6 -1.6Z"/><path d="M13.4 46.6a1.6 1.6 0 1 0 3.2 0a1.6 1.6 0 1 0 -3.2 0Z"/></g><path d="M22 18.6H54.4A2.4 2.4 0 0 1 56.8 21V25A2.4 2.4 0 0 1 54.4 27.4H22Z" fill="url(#steel-v)" stroke="#0a0d19" stroke-width="0.9" stroke-linejoin="round"/><path d="M24 21.4H54" fill="none" stroke="rgba(255,255,255,.55)" stroke-width="1" stroke-linecap="round" stroke-linejoin="round"/><path d="M14.4 17H30.4V30.6H26L19.6 48.6Q17 53.8 11.4 51.4Q7.6 49.6 8.8 44.6L14.4 28Z" fill="url(#darkwood-d)" stroke="#0a0d19" stroke-width="0.9" stroke-linejoin="round"/><path d="M18 15h8.8a1.6 1.6 0 0 1 1.6 1.6v2.8a1.6 1.6 0 0 1 -1.6 1.6h-8.8a1.6 1.6 0 0 1 -1.6 -1.6v-2.8a1.6 1.6 0 0 1 1.6 -1.6Z" fill="url(#iron-v)" stroke="#0a0d19" stroke-width="0.9" stroke-linejoin="round"/><path d="M26 30.6Q26 38 32.6 37.6Q36.6 37 36.6 30.6" fill="none" stroke="#0a0d19" stroke-width="3.2" stroke-linecap="round" stroke-linejoin="round"/><path d="M26 30.6Q26 38 32.6 37.6Q36.6 37 36.6 30.6" fill="none" stroke="#b8c0cc" stroke-width="1.4" stroke-linecap="round" stroke-linejoin="round"/><path d="M29.6 30.6L31 35" fill="none" stroke="#0a0d19" stroke-width="1.6" stroke-linecap="round" stroke-linejoin="round"/><path d="M13.4 46.6a1.6 1.6 0 1 0 3.2 0a1.6 1.6 0 1 0 -3.2 0Z" fill="url(#iron-d)" stroke="#0a0d19" stroke-width="0.9" stroke-linejoin="round"/></g><rect x="3.2" y="3.2" width="57.6" height="57.6" rx="7" fill="none" stroke="#7cc46c" stroke-width="1.6" opacity=".95"/></svg>