<svg xmlns="http://www.w3.org/2000/svg" viewBox="0 0 64 64" width="64" height="64"><defs><linearGradient id="tile" x1="0" y1="0" x2="0" y2="1"><stop offset="0" stop-color="#7a6224"/><stop offset="1" stop-color="#2a200a"/></linearGradient><radialGradient id="halo" cx=".5" cy=".5" r=".5"><stop offset="0" stop-color="#f1d786" stop-opacity=".42"/><stop offset="1" stop-color="#f1d786" stop-opacity="0"/></radialGradient><linearGradient id="gold-v" x1="0" y1="0" x2="0" y2="1"><stop offset="0" stop-color="#fff8d2"/><stop offset=".55" stop-color="#f2c94e"/><stop offset="1" stop-color="#a26c14"/></linearGradient></defs><rect x="1" y="1" width="62" height="62" rx="9" fill="url(#tile)" stroke="#0a0d19" stroke-width="2"/><circle cx="32" cy="32" r="27" fill="url(#halo)"/><path d="M4 12a8 8 0 0 1 8-8h40a8 8 0 0 1 8 8v8C44 15 20 15 4 22Z" fill="#fff" opacity=".07"/><g fill="#0a0d19" stroke="#0a0d19" stroke-width="3.6" stroke-linejoin="round"><path d="M6 54L10 44L28 44L32 54Z"/><path d="M10 44L28 44L25.6 49L12.4 49Z"/><path d="M32 54L36 44L54 44L58 54Z"/><path d="M36 44L54 44L51.6 49L38.4 49Z"/><path d="M19 43L23 33L41 33L45 43Z"/><path d="M23 33L41 33L38.6 38L25.4 38Z"/><path d="M6 32L10 22L28 22L32 32Z"/><path d="M10 22L28 22L25.6 27L12.4 27Z"/><path d="M32 32L36 22L54 22L58 32Z"/><path d="M36 22L54 22L51.6 27L38.4 27Z"/><path d="M19 21L23 11L41 11L45 21Z"/><path d="M23 11L41 11L38.6 16L25.4 16Z"/><path d="M50 8L50.79 11.21L54 12L50.79 12.79L50 16L49.21 12.79L46 12L49.21 11.21Z"/></g><path d="M6 54L10 44L28 44L32 54Z" fill="url(#gold-v)" stroke="#0a0d19" stroke-width="0.9" stroke-linejoin="round"/><path d="M10 44L28 44L25.6 49L12.4 49Z" fill="#fff2b8" opacity="0.6"/><path d="M32 54L36 44L54 44L58 54Z" fill="url(#gold-v)" stroke="#0a0d19" stroke-width="0.9" stroke-linejoin="round"/><path d="M36 44L54 44L51.6 49L38.4 49Z" fill="#fff2b8" opacity="0.6"/><path d="M19 43L23 33L41 33L45 43Z" fill="url(#gold-v)" stroke="#0a0d19" stroke-width="0.9" stroke-linejoin="round"/><path d="M23 33L41 33L38.6 38L25.4 38Z" fill="#fff2b8" opacity="0.6"/><path d="M6 32L10 22L28 22L32 32Z" fill="url(#gold-v)" stroke="#0a0d19" stroke-width="0.9" stroke-linejoin="round"/><path d="M10 22L28 22L25.6 27L12.4 27Z" fill="#fff2b8" opacity="0.6"/><path d="M32 32L36 22L54 22L58 32Z" fill="url(#gold-v)" stroke="#0a0d19" stroke-width="0.9" stroke-linejoin="round"/><path d="M36 22L54 22L51.6 27L38.4 27Z" fill="#fff2b8" opacity="0.6"/><path d="M19 21L23 11L41 11L45 21Z" fill="url(#gold-v)" stroke="#0a0d19" stroke-width="0.9" stroke-linejoin="round"/><path d="M23 11L41 11L38.6 16L25.4 16Z" fill="#fff2b8" opacity="0.6"/><path d="M50 8L50.79 11.21L54 12L50.79 12.79L50 16L49.21 12.79L46 12L49.21 11.21Z" fill="#ffffff" opacity="0.95"/><rect x="3.2" y="3.2" width="57.6" height="57.6" rx="7" fill="none" stroke="#f1d786" stroke-width="1.6" opacity=".95"/></svg>