<svg xmlns="http://www.w3.org/2000/svg" viewBox="0 0 64 64" width="64" height="64"><defs><linearGradient id="tile" x1="0" y1="0" x2="0" y2="1"><stop offset="0" stop-color="#6a2a5c"/><stop offset="1" stop-color="#250c20"/></linearGradient><radialGradient id="halo" cx=".5" cy=".5" r=".5"><stop offset="0" stop-color="#f1d786" stop-opacity=".42"/><stop offset="1" stop-color="#f1d786" stop-opacity="0"/></radialGradient><radialGradient id="holy-o" cx=".35" cy=".3" r=".8"><stop offset="0" stop-color="#ffffff"/><stop offset=".45" stop-color="#fff3b4"/><stop offset="1" stop-color="#d8b443"/></radialGradient><linearGradient id="holy-b" x1="0" y1="0" x2="1" y2="0"><stop offset="0" stop-color="#ffffff"/><stop offset=".5" stop-color="#fff3b4"/><stop offset=".5" stop-color="#d8b443"/><stop offset="1" stop-color="#fff3b4"/></linearGradient><linearGradient id="gold-v" x1="0" y1="0" x2="0" y2="1"><stop offset="0" stop-color="#fff8d2"/><stop offset=".55" stop-color="#f2c94e"/><stop offset="1" stop-color="#a26c14"/></linearGradient><radialGradient id="sapphire-o" cx=".35" cy=".3" r=".8"><stop offset="0" stop-color="#d2ecff"/><stop offset=".45" stop-color="#3b8ce6"/><stop offset="1" stop-color="#122f73"/></radialGradient><linearGradient id="gripblue-h" x1="0" y1="0" x2="1" y2="0"><stop offset="0" stop-color="#7f8fbf"/><stop offset=".55" stop-color="#3b4677"/><stop offset="1" stop-color="#1a2045"/></linearGradient><linearGradient id="sapphire-d" x1="0" y1="0" x2="1" y2="1"><stop offset="0" stop-color="#d2ecff"/><stop offset=".55" stop-color="#3b8ce6"/><stop offset="1" stop-color="#122f73"/></linearGradient></defs><rect x="1" y="1" width="62" height="62" rx="9" fill="url(#tile)" stroke="#0a0d19" stroke-width="2"/><circle cx="32" cy="32" r="27" fill="url(#halo)"/><path d="M4 12a8 8 0 0 1 8-8h40a8 8 0 0 1 8 8v8C44 15 20 15 4 22Z" fill="#fff" opacity=".07"/><path d="M35 16a13 13 0 1 0 26 0a13 13 0 1 0 -26 0Z" fill="url(#holy-o)" opacity="0.7"/><g transform="translate(32 32) scale(0.9) translate(-32 -32) rotate(45 32 32)"><g fill="#0a0d19" stroke="#0a0d19" stroke-width="3.6" stroke-linejoin="round"><path d="M32 1L37.4 8.5V41H26.6V8.5Z"/><path d="M17 39.5Q24 44 32 42Q40 44 47 39.5Q46.6 46.5 40.5 48Q36 46.5 32 48.4Q28 46.5 23.5 48Q17.4 46.5 17 39.5Z"/><path d="M28.9 44.6a3.1 3.1 0 1 0 6.2 0a3.1 3.1 0 1 0 -6.2 0Z"/><path d="M31 48h2a1.5 1.5 0 0 1 1.5 1.5v6.5a1.5 1.5 0 0 1 -1.5 1.5h-2a1.5 1.5 0 0 1 -1.5 -1.5v-6.5a1.5 1.5 0 0 1 1.5 -1.5Z"/><path d="M32 56.5L35.6 60.2L32 63.8L28.4 60.2Z"/></g><path d="M32 1L37.4 8.5V41H26.6V8.5Z" fill="url(#holy-b)" stroke="#0a0d19" stroke-width="0.9" stroke-linejoin="round"/><path d="M17 39.5Q24 44 32 42Q40 44 47 39.5Q46.6 46.5 40.5 48Q36 46.5 32 48.4Q28 46.5 23.5 48Q17.4 46.5 17 39.5Z" fill="url(#gold-v)" stroke="#0a0d19" stroke-width="0.9" stroke-linejoin="round"/><path d="M28.9 44.6a3.1 3.1 0 1 0 6.2 0a3.1 3.1 0 1 0 -6.2 0Z" fill="url(#sapphire-o)" stroke="#0a0d19" stroke-width="0.9" stroke-linejoin="round"/><path d="M31 48h2a1.5 1.5 0 0 1 1.5 1.5v6.5a1.5 1.5 0 0 1 -1.5 1.5h-2a1.5 1.5 0 0 1 -1.5 -1.5v-6.5a1.5 1.5 0 0 1 1.5 -1.5Z" fill="url(#gripblue-h)" stroke="#0a0d19" stroke-width="0.9" stroke-linejoin="round"/><path d="M32 56.5L35.6 60.2L32 63.8L28.4 60.2Z" fill="url(#sapphire-d)" stroke="#0a0d19" stroke-width="0.9" stroke-linejoin="round"/></g><path d="M54 25.4L54.91 29.09L58.6 30L54.91 30.91L54 34.6L53.09 30.91L49.4 30L53.09 29.09Z" fill="#ffffff" opacity="0.95"/><path d="M36 4.6L36.67 7.33L39.4 8L36.67 8.67L36 11.4L35.33 8.67L32.6 8L35.33 7.33Z" fill="#ffffff" opacity="0.95"/><path d="M12 15L12.59 17.41L15 18L12.59 18.59L12 21L11.41 18.59L9 18L11.41 17.41Z" fill="#ffffff" opacity="0.95"/><path d="M56 47.4L56.51 49.49L58.6 50L56.51 50.51L56 52.6L55.49 50.51L53.4 50L55.49 49.49Z" fill="#ffffff" opacity="0.95"/><rect x="3.2" y="3.2" width="57.6" height="57.6" rx="7" fill="none" stroke="#f1d786" stroke-width="1.6" opacity=".95"/></svg>