<svg xmlns="http://www.w3.org/2000/svg" viewBox="0 0 64 64" width="64" height="64"><defs><linearGradient id="tile" x1="0" y1="0" x2="0" y2="1"><stop offset="0" stop-color="#6a2a5c"/><stop offset="1" stop-color="#250c20"/></linearGradient><radialGradient id="halo" cx=".5" cy=".5" r=".5"><stop offset="0" stop-color="#f1d786" stop-opacity=".42"/><stop offset="1" stop-color="#f1d786" stop-opacity="0"/></radialGradient><radialGradient id="holy-o" cx=".35" cy=".3" r=".8"><stop offset="0" stop-color="#ffffff"/><stop offset=".45" stop-color="#fff3b4"/><stop offset="1" stop-color="#d8b443"/></radialGradient><linearGradient id="superior-h" x1="0" y1="0" x2="1" y2="0"><stop offset="0" stop-color="#fdf6ff"/><stop offset=".55" stop-color="#d8c6f2"/><stop offset="1" stop-color="#8770be"/></linearGradient><linearGradient id="gripblue-h" x1="0" y1="0" x2="1" y2="0"><stop offset="0" stop-color="#7f8fbf"/><stop offset=".55" stop-color="#3b4677"/><stop offset="1" stop-color="#1a2045"/></linearGradient><linearGradient id="silver-d" x1="0" y1="0" x2="1" y2="1"><stop offset="0" stop-color="#ffffff"/><stop offset=".55" stop-color="#e3ebf5"/><stop offset="1" stop-color="#97a8bf"/></linearGradient></defs><rect x="1" y="1" width="62" height="62" rx="9" fill="url(#tile)" stroke="#0a0d19" stroke-width="2"/><circle cx="32" cy="32" r="27" fill="url(#halo)"/><path d="M4 12a8 8 0 0 1 8-8h40a8 8 0 0 1 8 8v8C44 15 20 15 4 22Z" fill="#fff" opacity=".07"/><path d="M35 16a13 13 0 1 0 26 0a13 13 0 1 0 -26 0Z" fill="url(#holy-o)" opacity="0.7"/><g transform="translate(32 32) scale(0.9) translate(-32 -32) translate(2 0) rotate(45 32 32)"><g fill="#0a0d19" stroke="#0a0d19" stroke-width="3.6" stroke-linejoin="round"><path d="M36 3.4C11 14 11 50 36 60.6L37 57.6C17.4 47.4 17.4 16.6 37 6.4Z"/><path d="M16.2 27h4a1.8 1.8 0 0 1 1.8 1.8v6.4a1.8 1.8 0 0 1 -1.8 1.8h-4a1.8 1.8 0 0 1 -1.8 -1.8v-6.4a1.8 1.8 0 0 1 1.8 -1.8Z"/><path d="M34.6 4.6a1.8 1.8 0 1 0 3.6 0a1.8 1.8 0 1 0 -3.6 0Z"/><path d="M34.6 59.4a1.8 1.8 0 1 0 3.6 0a1.8 1.8 0 1 0 -3.6 0Z"/></g><path d="M36 3.4C11 14 11 50 36 60.6L37 57.6C17.4 47.4 17.4 16.6 37 6.4Z" fill="url(#superior-h)" stroke="#0a0d19" stroke-width="0.9" stroke-linejoin="round"/><path d="M34.4 5.2C27 9 22 14 19.4 20" fill="none" stroke="rgba(255,255,255,.5)" stroke-width="0.9" stroke-linecap="round" stroke-linejoin="round"/><path d="M16.2 27h4a1.8 1.8 0 0 1 1.8 1.8v6.4a1.8 1.8 0 0 1 -1.8 1.8h-4a1.8 1.8 0 0 1 -1.8 -1.8v-6.4a1.8 1.8 0 0 1 1.8 -1.8Z" fill="url(#gripblue-h)" stroke="#0a0d19" stroke-width="0.9" stroke-linejoin="round"/><path d="M36.6 4.6V59.4" fill="none" stroke="#0a0d19" stroke-width="2.2" stroke-linecap="round" stroke-linejoin="round"/><path d="M36.6 4.6V59.4" fill="none" stroke="#efe7cf" stroke-width="1" stroke-linecap="round" stroke-linejoin="round"/><path d="M34.6 4.6a1.8 1.8 0 1 0 3.6 0a1.8 1.8 0 1 0 -3.6 0Z" fill="url(#silver-d)" stroke="#0a0d19" stroke-width="0.9" stroke-linejoin="round"/><path d="M34.6 59.4a1.8 1.8 0 1 0 3.6 0a1.8 1.8 0 1 0 -3.6 0Z" fill="url(#silver-d)" stroke="#0a0d19" stroke-width="0.9" stroke-linejoin="round"/></g><path d="M54 25.4L54.91 29.09L58.6 30L54.91 30.91L54 34.6L53.09 30.91L49.4 30L53.09 29.09Z" fill="#ffffff" opacity="0.95"/><path d="M36 4.6L36.67 7.33L39.4 8L36.67 8.67L36 11.4L35.33 8.67L32.6 8L35.33 7.33Z" fill="#ffffff" opacity="0.95"/><path d="M12 15L12.59 17.41L15 18L12.59 18.59L12 21L11.41 18.59L9 18L11.41 17.41Z" fill="#ffffff" opacity="0.95"/><path d="M56 47.4L56.51 49.49L58.6 50L56.51 50.51L56 52.6L55.49 50.51L53.4 50L55.49 49.49Z" fill="#ffffff" opacity="0.95"/><rect x="3.2" y="3.2" width="57.6" height="57.6" rx="7" fill="none" stroke="#f1d786" stroke-width="1.6" opacity=".95"/></svg>