<svg xmlns="http://www.w3.org/2000/svg" viewBox="0 0 64 64" width="64" height="64"><defs><linearGradient id="tile" x1="0" y1="0" x2="0" y2="1"><stop offset="0" stop-color="#2f5a32"/><stop offset="1" stop-color="#0f2312"/></linearGradient><radialGradient id="halo" cx=".5" cy=".5" r=".5"><stop offset="0" stop-color="#7cd08a" stop-opacity=".42"/><stop offset="1" stop-color="#7cd08a" stop-opacity="0"/></radialGradient><radialGradient id="plum-o" cx=".35" cy=".3" r=".8"><stop offset="0" stop-color="#ffd6f2"/><stop offset=".45" stop-color="#c04aa0"/><stop offset="1" stop-color="#5e1450"/></radialGradient><linearGradient id="plum-v" x1="0" y1="0" x2="0" y2="1"><stop offset="0" stop-color="#ffd6f2"/><stop offset=".55" stop-color="#c04aa0"/><stop offset="1" stop-color="#5e1450"/></linearGradient><linearGradient id="gold-d" x1="0" y1="0" x2="1" y2="1"><stop offset="0" stop-color="#fff8d2"/><stop offset=".55" stop-color="#f2c94e"/><stop offset="1" stop-color="#a26c14"/></linearGradient></defs><rect x="1" y="1" width="62" height="62" rx="9" fill="url(#tile)" stroke="#0a0d19" stroke-width="2"/><circle cx="32" cy="32" r="27" fill="url(#halo)"/><path d="M4 12a8 8 0 0 1 8-8h40a8 8 0 0 1 8 8v8C44 15 20 15 4 22Z" fill="#fff" opacity=".07"/><g fill="#0a0d19" stroke="#0a0d19" stroke-width="3.6" stroke-linejoin="round"><path d="M22 22Q12 34 14 46Q16 56 32 56Q48 56 50 46Q52 34 42 22Z"/><path d="M22 22L20 15Q32 11 44 15L42 22Q32 25 22 22Z"/><path d="M46 4.4L46.91 8.09L50.6 9L46.91 9.91L46 13.6L45.09 9.91L41.4 9L45.09 8.09Z"/><path d="M16 7.8L16.63 10.37L19.2 11L16.63 11.63L16 14.2L15.37 11.63L12.8 11L15.37 10.37Z"/><path d="M52 21.4L52.51 23.49L54.6 24L52.51 24.51L52 26.6L51.49 24.51L49.4 24L51.49 23.49Z"/><path d="M30 3.6L30.48 5.52L32.4 6L30.48 6.48L30 8.4L29.52 6.48L27.6 6L29.52 5.52Z"/></g><path d="M22 22Q12 34 14 46Q16 56 32 56Q48 56 50 46Q52 34 42 22Z" fill="url(#plum-o)" stroke="#0a0d19" stroke-width="0.9" stroke-linejoin="round"/><path d="M22 22L20 15Q32 11 44 15L42 22Q32 25 22 22Z" fill="url(#plum-v)" stroke="#0a0d19" stroke-width="0.9" stroke-linejoin="round"/><path d="M21 21.6Q32 25.6 43 21.6" fill="none" stroke="#0a0d19" stroke-width="3.2" stroke-linecap="round" stroke-linejoin="round"/><path d="M21 21.6Q32 25.6 43 21.6" fill="none" stroke="url(#gold-d)" stroke-width="1.6" stroke-linecap="round" stroke-linejoin="round"/><path d="M46 4.4L46.91 8.09L50.6 9L46.91 9.91L46 13.6L45.09 9.91L41.4 9L45.09 8.09Z" fill="#fff3a8" opacity="0.95"/><path d="M16 7.8L16.63 10.37L19.2 11L16.63 11.63L16 14.2L15.37 11.63L12.8 11L15.37 10.37Z" fill="#fff3a8" opacity="0.95"/><path d="M52 21.4L52.51 23.49L54.6 24L52.51 24.51L52 26.6L51.49 24.51L49.4 24L51.49 23.49Z" fill="#fff3a8" opacity="0.95"/><path d="M30 3.6L30.48 5.52L32.4 6L30.48 6.48L30 8.4L29.52 6.48L27.6 6L29.52 5.52Z" fill="#fff3a8" opacity="0.95"/><rect x="3.2" y="3.2" width="57.6" height="57.6" rx="7" fill="none" stroke="#7cd08a" stroke-width="1.6" opacity=".95"/></svg>