<svg xmlns="http://www.w3.org/2000/svg" viewBox="0 0 64 64" width="64" height="64"><defs><linearGradient id="tile" x1="0" y1="0" x2="0" y2="1"><stop offset="0" stop-color="#1f4f86"/><stop offset="1" stop-color="#0b1d38"/></linearGradient><radialGradient id="halo" cx=".5" cy=".5" r=".5"><stop offset="0" stop-color="#d8e0ea" stop-opacity=".42"/><stop offset="1" stop-color="#d8e0ea" stop-opacity="0"/></radialGradient><linearGradient id="silver-v" x1="0" y1="0" x2="0" y2="1"><stop offset="0" stop-color="#ffffff"/><stop offset=".55" stop-color="#e3ebf5"/><stop offset="1" stop-color="#97a8bf"/></linearGradient><linearGradient id="gold-v" x1="0" y1="0" x2="0" y2="1"><stop offset="0" stop-color="#fff8d2"/><stop offset=".55" stop-color="#f2c94e"/><stop offset="1" stop-color="#a26c14"/></linearGradient><linearGradient id="darkwood-d" x1="0" y1="0" x2="1" y2="1"><stop offset="0" stop-color="#b98b62"/><stop offset=".55" stop-color="#6e4a2c"/><stop offset="1" stop-color="#38220f"/></linearGradient><linearGradient id="darkwood-v" x1="0" y1="0" x2="0" y2="1"><stop offset="0" stop-color="#b98b62"/><stop offset=".55" stop-color="#6e4a2c"/><stop offset="1" stop-color="#38220f"/></linearGradient><linearGradient id="gold-d" x1="0" y1="0" x2="1" y2="1"><stop offset="0" stop-color="#fff8d2"/><stop offset=".55" stop-color="#f2c94e"/><stop offset="1" stop-color="#a26c14"/></linearGradient><linearGradient id="emerald-v" x1="0" y1="0" x2="0" y2="1"><stop offset="0" stop-color="#cfffe0"/><stop offset=".55" stop-color="#2fbf6a"/><stop offset="1" stop-color="#0c5a2c"/></linearGradient></defs><rect x="1" y="1" width="62" height="62" rx="9" fill="url(#tile)" stroke="#0a0d19" stroke-width="2"/><circle cx="32" cy="32" r="27" fill="url(#halo)"/><path d="M4 12a8 8 0 0 1 8-8h40a8 8 0 0 1 8 8v8C44 15 20 15 4 22Z" fill="#fff" opacity=".07"/><g transform="translate(-3 -3) translate(32 32) scale(0.86) translate(-32 -32) rotate(-38 32 32)"><g fill="#0a0d19" stroke="#0a0d19" stroke-width="3.6" stroke-linejoin="round"><path d="M26.6 25.4h32.8a1.6 1.6 0 0 1 1.6 1.6v1.4a1.6 1.6 0 0 1 -1.6 1.6h-32.8a1.6 1.6 0 0 1 -1.6 -1.6v-1.4a1.6 1.6 0 0 1 1.6 -1.6Z"/><path d="M18.4 24h11.2a2.4 2.4 0 0 1 2.4 2.4v4.8a2.4 2.4 0 0 1 -2.4 2.4h-11.2a2.4 2.4 0 0 1 -2.4 -2.4v-4.8a2.4 2.4 0 0 1 2.4 -2.4Z"/><path d="M3.6 27.4L18 24.6V35L6.4 42.4Q2.4 38.8 3.6 27.4Z"/><path d="M32 30H50L50 33.4H31Z"/><path d="M54.8 22.6h1.4a0.8 0.8 0 0 1 0.8 0.8v2a0.8 0.8 0 0 1 -0.8 0.8h-1.4a0.8 0.8 0 0 1 -0.8 -0.8v-2a0.8 0.8 0 0 1 0.8 -0.8Z"/></g><path d="M26.6 25.4h32.8a1.6 1.6 0 0 1 1.6 1.6v1.4a1.6 1.6 0 0 1 -1.6 1.6h-32.8a1.6 1.6 0 0 1 -1.6 -1.6v-1.4a1.6 1.6 0 0 1 1.6 -1.6Z" fill="url(#silver-v)" stroke="#0a0d19" stroke-width="0.9" stroke-linejoin="round"/><path d="M18.4 24h11.2a2.4 2.4 0 0 1 2.4 2.4v4.8a2.4 2.4 0 0 1 -2.4 2.4h-11.2a2.4 2.4 0 0 1 -2.4 -2.4v-4.8a2.4 2.4 0 0 1 2.4 -2.4Z" fill="url(#gold-v)" stroke="#0a0d19" stroke-width="0.9" stroke-linejoin="round"/><path d="M3.6 27.4L18 24.6V35L6.4 42.4Q2.4 38.8 3.6 27.4Z" fill="url(#darkwood-d)" stroke="#0a0d19" stroke-width="0.9" stroke-linejoin="round"/><path d="M32 30H50L50 33.4H31Z" fill="url(#darkwood-v)" stroke="#0a0d19" stroke-width="0.9" stroke-linejoin="round"/><path d="M22 33.6Q22 39.6 27 39.4" fill="none" stroke="#0a0d19" stroke-width="2.8" stroke-linecap="round" stroke-linejoin="round"/><path d="M22 33.6Q22 39.6 27 39.4" fill="none" stroke="#b8c0cc" stroke-width="1.2" stroke-linecap="round" stroke-linejoin="round"/><path d="M54.8 22.6h1.4a0.8 0.8 0 0 1 0.8 0.8v2a0.8 0.8 0 0 1 -0.8 0.8h-1.4a0.8 0.8 0 0 1 -0.8 -0.8v-2a0.8 0.8 0 0 1 0.8 -0.8Z" fill="url(#gold-d)" stroke="#0a0d19" stroke-width="0.9" stroke-linejoin="round"/></g><g fill="#0a0d19" stroke="#0a0d19" stroke-width="2.4" stroke-linejoin="round"><path d="M38.3 49.5a11.2 11.2 0 1 0 22.4 0a11.2 11.2 0 1 0 -22.4 0Z"/></g><path d="M38.3 49.5a11.2 11.2 0 1 0 22.4 0a11.2 11.2 0 1 0 -22.4 0Z" fill="#121a33" stroke="#0a0d19" stroke-width="0.9" stroke-linejoin="round"/><path d="M39.7 49.5a9.8 9.8 0 1 0 19.6 0a9.8 9.8 0 1 0 -19.6 0Z" fill="none" stroke="#f1d786" stroke-width="1.3" stroke-linecap="round" stroke-linejoin="round"/><g transform="translate(49.5 49.5) scale(.3) translate(-32 -32)"><g fill="#0a0d19" stroke="#0a0d19" stroke-width="4.4" stroke-linejoin="round"><path d="M32 14L50 34L40 34L40 50L24 50L24 34L14 34Z"/></g><path d="M32 14L50 34L40 34L40 50L24 50L24 34L14 34Z" fill="url(#emerald-v)" stroke="#0a0d19" stroke-width="0.9" stroke-linejoin="round"/></g><rect x="3.2" y="3.2" width="57.6" height="57.6" rx="7" fill="none" stroke="#d8e0ea" stroke-width="1.6" opacity=".95"/></svg>