<svg xmlns="http://www.w3.org/2000/svg" viewBox="0 0 64 64" width="64" height="64"><defs><linearGradient id="tile" x1="0" y1="0" x2="0" y2="1"><stop offset="0" stop-color="#1f4f86"/><stop offset="1" stop-color="#0b1d38"/></linearGradient><radialGradient id="halo" cx=".5" cy=".5" r=".5"><stop offset="0" stop-color="#d8e0ea" stop-opacity=".42"/><stop offset="1" stop-color="#d8e0ea" stop-opacity="0"/></radialGradient><linearGradient id="crimson-v" x1="0" y1="0" x2="0" y2="1"><stop offset="0" stop-color="#ffb0b0"/><stop offset=".55" stop-color="#c8202f"/><stop offset="1" stop-color="#5e0812"/></linearGradient></defs><rect x="1" y="1" width="62" height="62" rx="9" fill="url(#tile)" stroke="#0a0d19" stroke-width="2"/><circle cx="32" cy="32" r="27" fill="url(#halo)"/><path d="M4 12a8 8 0 0 1 8-8h40a8 8 0 0 1 8 8v8C44 15 20 15 4 22Z" fill="#fff" opacity=".07"/><g transform="translate(0 -6) translate(32 32) scale(0.82) translate(-32 -32)"><g fill="#0a0d19" stroke="#0a0d19" stroke-width="3.6" stroke-linejoin="round"><path d="M32 8L54 28L54 38L32 20L10 38L10 28Z"/><path d="M32 24L54 44L54 54L32 36L10 54L10 44Z"/><path d="M32 40L54 60L54 70L32 52L10 70L10 60Z"/></g><path d="M32 8L54 28L54 38L32 20L10 38L10 28Z" fill="url(#crimson-v)" stroke="#0a0d19" stroke-width="0.9" stroke-linejoin="round"/><path d="M32 24L54 44L54 54L32 36L10 54L10 44Z" fill="url(#crimson-v)" stroke="#0a0d19" stroke-width="0.9" stroke-linejoin="round"/><path d="M32 40L54 60L54 70L32 52L10 70L10 60Z" fill="url(#crimson-v)" stroke="#0a0d19" stroke-width="0.9" stroke-linejoin="round"/></g><rect x="3.2" y="3.2" width="57.6" height="57.6" rx="7" fill="none" stroke="#d8e0ea" stroke-width="1.6" opacity=".95"/></svg>