<svg xmlns="http://www.w3.org/2000/svg" viewBox="0 0 64 64" width="64" height="64"><defs><linearGradient id="tile" x1="0" y1="0" x2="0" y2="1"><stop offset="0" stop-color="#55307e"/><stop offset="1" stop-color="#1d0d33"/></linearGradient><radialGradient id="halo" cx=".5" cy=".5" r=".5"><stop offset="0" stop-color="#f1d786" stop-opacity=".42"/><stop offset="1" stop-color="#f1d786" stop-opacity="0"/></radialGradient><linearGradient id="topaz-v" x1="0" y1="0" x2="0" y2="1"><stop offset="0" stop-color="#fff7c8"/><stop offset=".55" stop-color="#f4c21e"/><stop offset="1" stop-color="#9a6a06"/></linearGradient></defs><rect x="1" y="1" width="62" height="62" rx="9" fill="url(#tile)" stroke="#0a0d19" stroke-width="2"/><circle cx="32" cy="32" r="27" fill="url(#halo)"/><path d="M4 12a8 8 0 0 1 8-8h40a8 8 0 0 1 8 8v8C44 15 20 15 4 22Z" fill="#fff" opacity=".07"/><g fill="#0a0d19" stroke="#0a0d19" stroke-width="3.6" stroke-linejoin="round"><path d="M12.2 23.2a19.8 7.48 0 1 0 39.6 0a19.8 7.48 0 1 0 -39.6 0ZM17.92 23.2a14.08 3.96 0 1 0 28.16 0a14.08 3.96 0 1 0 -28.16 0Z" fill-rule="evenodd"/><path d="M32 25.4L36.04 36.76L47.4 40.8L36.04 44.84L32 56.2L27.96 44.84L16.6 40.8L27.96 36.76Z"/></g><path d="M12.2 23.2a19.8 7.48 0 1 0 39.6 0a19.8 7.48 0 1 0 -39.6 0ZM17.92 23.2a14.08 3.96 0 1 0 28.16 0a14.08 3.96 0 1 0 -28.16 0Z" fill="url(#topaz-v)" fill-rule="evenodd" stroke="#0a0d19" stroke-width="0.9" stroke-linejoin="round"/><path d="M32 25.4L36.04 36.76L47.4 40.8L36.04 44.84L32 56.2L27.96 44.84L16.6 40.8L27.96 36.76Z" fill="#ffffff" stroke="#0a0d19" stroke-width="0.9" stroke-linejoin="round"/><rect x="3.2" y="3.2" width="57.6" height="57.6" rx="7" fill="none" stroke="#f1d786" stroke-width="1.6" opacity=".95"/></svg>