<svg xmlns="http://www.w3.org/2000/svg" viewBox="0 0 64 64" width="64" height="64"><defs><linearGradient id="tile" x1="0" y1="0" x2="0" y2="1"><stop offset="0" stop-color="#1f4f86"/><stop offset="1" stop-color="#0b1d38"/></linearGradient><radialGradient id="halo" cx=".5" cy=".5" r=".5"><stop offset="0" stop-color="#d8e0ea" stop-opacity=".42"/><stop offset="1" stop-color="#d8e0ea" stop-opacity="0"/></radialGradient><radialGradient id="skin-o" cx=".35" cy=".3" r=".8"><stop offset="0" stop-color="#ffe0c4"/><stop offset=".45" stop-color="#e8b088"/><stop offset="1" stop-color="#a8704a"/></radialGradient><linearGradient id="navy-v" x1="0" y1="0" x2="0" y2="1"><stop offset="0" stop-color="#a8b8e8"/><stop offset=".55" stop-color="#34478a"/><stop offset="1" stop-color="#141e45"/></linearGradient><linearGradient id="steel-v" x1="0" y1="0" x2="0" y2="1"><stop offset="0" stop-color="#cddaea"/><stop offset=".55" stop-color="#7d91a8"/><stop offset="1" stop-color="#3d4d63"/></linearGradient></defs><rect x="1" y="1" width="62" height="62" rx="9" fill="url(#tile)" stroke="#0a0d19" stroke-width="2"/><circle cx="32" cy="32" r="27" fill="url(#halo)"/><path d="M4 12a8 8 0 0 1 8-8h40a8 8 0 0 1 8 8v8C44 15 20 15 4 22Z" fill="#fff" opacity=".07"/><g transform="translate(0 2)"><g fill="#0a0d19" stroke="#0a0d19" stroke-width="3.6" stroke-linejoin="round"><path d="M10.6 22a5.4 5.4 0 1 0 10.8 0a5.4 5.4 0 1 0 -10.8 0Z"/><path d="M7 44Q7 29 16 29Q25 29 25 44Z"/><path d="M42.6 22a5.4 5.4 0 1 0 10.8 0a5.4 5.4 0 1 0 -10.8 0Z"/><path d="M39 44Q39 29 48 29Q57 29 57 44Z"/><path d="M25.52 28a6.48 6.48 0 1 0 12.96 0a6.48 6.48 0 1 0 -12.96 0Z"/><path d="M21.200000000000003 54.4Q21.200000000000003 36.4 32 36.4Q42.8 36.4 42.8 54.4Z"/></g><path d="M10.6 22a5.4 5.4 0 1 0 10.8 0a5.4 5.4 0 1 0 -10.8 0Z" fill="url(#skin-o)" stroke="#0a0d19" stroke-width="0.9" stroke-linejoin="round"/><path d="M7 44Q7 29 16 29Q25 29 25 44Z" fill="url(#navy-v)" stroke="#0a0d19" stroke-width="0.9" stroke-linejoin="round"/><path d="M42.6 22a5.4 5.4 0 1 0 10.8 0a5.4 5.4 0 1 0 -10.8 0Z" fill="url(#skin-o)" stroke="#0a0d19" stroke-width="0.9" stroke-linejoin="round"/><path d="M39 44Q39 29 48 29Q57 29 57 44Z" fill="url(#navy-v)" stroke="#0a0d19" stroke-width="0.9" stroke-linejoin="round"/><path d="M25.52 28a6.48 6.48 0 1 0 12.96 0a6.48 6.48 0 1 0 -12.96 0Z" fill="url(#skin-o)" stroke="#0a0d19" stroke-width="0.9" stroke-linejoin="round"/><path d="M21.200000000000003 54.4Q21.200000000000003 36.4 32 36.4Q42.8 36.4 42.8 54.4Z" fill="url(#steel-v)" stroke="#0a0d19" stroke-width="0.9" stroke-linejoin="round"/></g><rect x="3.2" y="3.2" width="57.6" height="57.6" rx="7" fill="none" stroke="#d8e0ea" stroke-width="1.6" opacity=".95"/></svg>